ply
format ascii 1.0
comment Created by Blender3D 2.52 (sub 0) - www.blender.org, source file: <memory1>
element vertex 42
property float x
property float y
property float z
element face 24
property list uchar uint vertex_indices
end_header
-19.338148 0.000015 -79.187294 
-19.683378 0.000008 0.780991 
-19.683378 10.000008 0.780992 
-19.338148 10.000015 -79.187294 
-19.683378 0.000008 0.780991 
-60.761971 0.000008 -0.577560 
-60.761971 10.000008 -0.577559 
-19.683378 10.000008 0.780992 
-60.761971 0.000008 -0.577560 
1.216758 0.000004 61.267609 
1.216758 10.000000 61.267609 
-60.761971 10.000008 -0.577559 
1.216758 0.000004 61.267609 
62.288292 0.000008 1.113045 
62.288292 10.000008 1.113046 
1.216758 10.000000 61.267609 
62.288292 0.000008 1.113045 
22.058779 0.000008 1.178024 
22.058779 10.000008 1.178025 
62.288292 10.000008 1.113046 
22.058779 0.000008 1.178024 
22.200411 0.000015 -79.872414 
22.200411 10.000015 -79.872414 
22.058779 10.000008 1.178025 
22.200411 0.000015 -79.872414 
-19.338148 0.000015 -79.187294 
-19.338148 10.000015 -79.187294 
22.200411 10.000015 -79.872414 
-19.683378 0.000008 0.780991 
1.216758 0.000004 61.267609 
-60.761971 0.000008 -0.577560 
22.058779 0.000008 1.178024 
62.288292 0.000008 1.113045 
-19.338148 0.000015 -79.187294 
22.200411 0.000015 -79.872414 
-19.683378 10.000008 0.780992 
-60.761971 10.000008 -0.577559 
1.216758 10.000000 61.267609 
62.288292 10.000008 1.113046 
22.058779 10.000008 1.178025 
22.200411 10.000015 -79.872414 
-19.338148 10.000015 -79.187294 
3 0 1 2
3 0 2 3
3 4 5 6
3 4 6 7
3 8 9 10
3 8 10 11
3 12 13 14
3 12 14 15
3 16 17 18
3 16 18 19
3 20 21 22
3 20 22 23
3 24 25 26
3 24 26 27
3 28 29 30
3 29 31 32
3 28 31 29
3 31 33 34
3 31 28 33
3 35 36 37
3 37 38 39
3 35 37 39
3 39 40 41
3 39 41 35
