ply
format ascii 1.0
comment Created by Blender3D 2.52 (sub 0) - www.blender.org, source file: spaceship-symbol.blend
element vertex 50
property float x
property float y
property float z
property float s
property float t
element face 13
property list uchar uint vertex_indices
end_header
29.469460 2.946946 -20.382435 0.000000 1.000000 
0.000000 2.499998 29.617565 1.000000 1.000000 
0.000000 -2.500002 29.617565 1.000000 0.000000 
29.469460 -2.946946 -20.382435 0.000000 0.000000 
29.469460 -2.946946 -20.382435 0.000000 1.000000 
0.000000 -2.500002 29.617565 1.000000 0.000000 
-29.469467 -2.946946 -20.382435 0.000000 0.000000 
-29.469467 -2.946946 -20.382435 0.000000 1.000000 
0.000000 -2.500002 29.617565 1.000000 1.000000 
0.000000 2.499998 29.617565 1.000000 0.000000 
-29.469450 2.946948 -20.382435 0.000000 0.000000 
0.000000 2.499998 29.617565 0.000000 1.000000 
29.469460 2.946946 -20.382435 1.000000 1.000000 
-29.469450 2.946948 -20.382435 1.000000 0.000000 
-29.469467 -2.946946 -20.382435 0.000000 1.000000 
-29.469450 2.946948 -20.382435 1.000000 1.000000 
-9.319263 2.946948 -21.247433 1.000000 0.000000 
-9.319269 -2.946946 -21.247433 0.000000 0.000000 
29.469460 -2.946946 -20.382435 0.000000 1.000000 
-29.469467 -2.946946 -20.382435 1.000000 1.000000 
-9.319269 -2.946946 -21.247433 1.000000 0.000000 
9.319262 -2.946946 -21.247433 0.000000 0.000000 
-29.469450 2.946948 -20.382435 0.000000 1.000000 
29.469460 2.946946 -20.382435 1.000000 1.000000 
9.319262 2.946946 -21.247433 1.000000 0.000000 
-9.319263 2.946948 -21.247433 0.000000 0.000000 
29.469460 2.946946 -20.382435 0.000000 1.000000 
29.469460 -2.946946 -20.382435 1.000000 1.000000 
9.319262 -2.946946 -21.247433 1.000000 0.000000 
9.319262 2.946946 -21.247433 0.000000 0.000000 
9.319262 2.946946 -21.247433 0.000000 1.000000 
9.319262 -2.946946 -21.247433 1.000000 1.000000 
10.538484 -2.946946 -24.448528 1.000000 0.000000 
10.538484 2.946946 -24.448528 0.000000 0.000000 
-9.319263 2.946948 -21.247433 0.000000 1.000000 
9.319262 2.946946 -21.247433 1.000000 1.000000 
10.538484 2.946946 -24.448528 1.000000 0.000000 
-10.538485 2.946948 -24.448528 0.000000 0.000000 
9.319262 -2.946946 -21.247433 0.000000 1.000000 
-9.319269 -2.946946 -21.247433 1.000000 1.000000 
-10.538491 -2.946946 -24.448528 1.000000 0.000000 
10.538484 -2.946946 -24.448528 0.000000 0.000000 
-9.319269 -2.946946 -21.247433 0.000000 1.000000 
-9.319263 2.946948 -21.247433 1.000000 1.000000 
-10.538485 2.946948 -24.448528 1.000000 0.000000 
-10.538491 -2.946946 -24.448528 0.000000 0.000000 
10.538484 2.946946 -24.448528 0.000000 1.000000 
10.538484 -2.946946 -24.448528 1.000000 1.000000 
-10.538491 -2.946946 -24.448528 1.000000 0.000000 
-10.538485 2.946948 -24.448528 0.000000 0.000000 
4 0 1 2 3
3 4 5 6
4 7 8 9 10
3 11 12 13
4 14 15 16 17
4 18 19 20 21
4 22 23 24 25
4 26 27 28 29
4 30 31 32 33
4 34 35 36 37
4 38 39 40 41
4 42 43 44 45
4 46 47 48 49
